#!OML:ASF H:\Pregnant\Project 1\Capture day 1\Session 1\femalepreg.ASF
:FULLY-SPECIFIED
:DEGREES
961
root -1.65995 15.3575 40.9507 -153.164 -25.799 182.568
lowerback -14.8873 1.56512 10.3762
upperback -2.36653 -0.814361 6.40249
thorax 5.85337 -0.59393 0.799842
lowerneck -12.2731 5.95532 6.55184
upperneck 33.524 4.42709 0.87913
head 13.5457 2.17613 -0.288588
rclavicle -3.49861e-014 -1.25632e-013
rhumerus -33.1129 -6.97531 -68.4319
rradius 36.0392
rwrist -9.27143
rhand -20.5332 -21.2727
rfingers 7.12502
rthumb 5.82502 -51.1726
lclavicle -3.49861e-014 -1.25632e-013
lhumerus -38.3266 -10.2454 88.4985
lradius 48.509
lwrist 37.4491
lhand -25.5402 -7.72147
lfingers 7.12502
lthumb 0.989877 22.256
rfemur -46.9324 7.17399 24.8947
rtibia 34.3606
rfoot -15.1295 -9.07107
rtoes -5.72633
lfemur -41.0694 -15.8572 3.4107
ltibia 12.3257
lfoot -7.21008 -5.72052
ltoes -30.7373
962
root -1.64009 15.3565 40.9475 -153.081 -26.0341 182.558
lowerback -14.8703 1.60075 10.3863
upperback -2.35382 -0.76144 6.3805
thorax 5.86007 -0.565243 0.781433
lowerneck -12.3823 5.89866 6.55734
upperneck 33.6035 4.3288 0.879239
head 13.6015 2.13437 -0.301623
rclavicle -6.91771e-014 -1.25632e-013
rhumerus -32.8416 -6.9052 -68.5874
rradius 36.0811
rwrist -9.20739
rhand -20.4407 -21.3303
rfingers 7.12502
rthumb 5.91438 -51.2278
lclavicle -6.91771e-014 -1.25632e-013
lhumerus -38.2333 -10.1962 88.4888
lradius 48.695
lwrist 37.5334
lhand -25.6315 -7.60923
lfingers 7.12502
lthumb 0.901678 22.3686
rfemur -47.0325 6.94588 25.0722
rtibia 34.3871
rfoot -15.12 -8.96681
rtoes -5.58795
lfemur -41.2126 -15.8083 3.515
ltibia 12.2494
lfoot -7.40549 -5.5692
ltoes -31.7337
963
root -1.621 15.3556 40.9437 -153.008 -26.2787 182.547
lowerback -14.849 1.63583 10.4091
upperback -2.34723 -0.707991 6.34524
thorax 5.85744 -0.535938 0.741772
lowerneck -12.482 5.84327 6.58546
upperneck 33.7024 4.21989 0.883412
head 13.6648 2.09022 -0.319035
rclavicle -4.29375e-014 2.06736e-014
rhumerus -32.5692 -6.84609 -68.7512
rradius 36.0834
rwrist -9.13562
rhand -20.3843 -21.3053
rfingers 7.12502
rthumb 5.96875 -51.2012
lclavicle -4.29375e-014 2.06736e-014
lhumerus -38.1645 -10.171 88.4709
lradius 48.8735
lwrist 37.648
lhand -25.7205 -7.49957
lfingers 7.12502
lthumb 0.815731 22.4786
rfemur -47.1149 6.72015 25.2467
rtibia 34.4086
rfoot -15.1178 -8.8809
rtoes -5.47299
lfemur -41.3374 -15.7666 3.60965
ltibia 12.1649
lfoot -7.60863 -5.38714
ltoes -32.7087
964
root -1.60246 15.3549 40.9393 -152.94 -26.5357 182.537
lowerback -14.8376 1.66525 10.4354
upperback -2.33725 -0.664017 6.30854
thorax 5.8634 -0.510584 0.696895
lowerneck -12.5879 5.79173 6.61503
upperneck 33.8062 4.11136 0.89749
head 13.7317 2.04778 -0.332686
rclavicle 3.73715e-014 0
rhumerus -32.2712 -6.78011 -68.9178
rradius 36.0563
rwrist -9.06922
rhand -20.3398 -21.2462
rfingers 7.12502
rthumb 6.01179 -51.141
lclavicle 3.73715e-014 0
lhumerus -38.0956 -10.1508 88.4529
lradius 49.0406
lwrist 37.7768
lhand -25.7998 -7.40443
lfingers 7.12502
lthumb 0.739058 22.574
rfemur -47.1867 6.50455 25.4142
rtibia 34.4228
rfoot -15.1137 -8.82327
rtoes -5.36302
lfemur -41.457 -15.7299 3.69913
ltibia 12.0799
lfoot -7.82058 -5.16396
ltoes -33.753
965
root -1.58455 15.3543 40.9344 -152.883 -26.7976 182.531
lowerback -14.8308 1.70151 10.4804
upperback -2.32635 -0.612119 6.25413
thorax 5.873 -0.480008 0.624456
lowerneck -12.6837 5.73706 6.66142
upperneck 33.9028 3.98424 0.936649
head 13.7932 2.00261 -0.342568
rclavicle 7.63333e-014 -6.36111e-015
rhumerus -31.9766 -6.74067 -69.096
rradius 36.013
rwrist -9.00009
rhand -20.3108 -21.1792
rfingers 7.12502
rthumb 6.03979 -51.0731
lclavicle 7.63333e-014 -6.36111e-015
lhumerus -38.0369 -10.1816 88.4263
lradius 49.203
lwrist 37.9281
lhand -25.844 -7.3546
lfingers 7.12502
lthumb 0.696446 22.624
rfemur -47.2409 6.29076 25.5862
rtibia 34.428
rfoot -15.1103 -8.77215
rtoes -5.25402
lfemur -41.5644 -15.6974 3.78783
ltibia 11.9982
lfoot -8.02941 -4.8879
ltoes -34.8561
966
root -1.56697 15.3538 40.929 -152.832 -27.0633 182.531
lowerback -14.8547 1.73479 10.5241
upperback -2.2931 -0.570511 6.20208
thorax 5.92326 -0.452036 0.553978
lowerneck -12.7982 5.68561 6.69777
upperneck 33.9851 3.86247 0.989137
head 13.8521 1.96162 -0.344081
rclavicle -7.23576e-014 -1.74931e-014
rhumerus -31.6524 -6.69342 -69.2795
rradius 35.9863
rwrist -8.93952
rhand -20.3026 -21.075
rfingers 7.12502
rthumb 6.04771 -50.9687
lclavicle -7.23576e-014 -1.74931e-014
lhumerus -37.9438 -10.2201 88.398
lradius 49.3491
lwrist 38.0821
lhand -25.8439 -7.35554
lfingers 7.12502
lthumb 0.696558 22.6231
rfemur -47.2874 6.10486 25.7477
rtibia 34.4249
rfoot -15.0967 -8.75091
rtoes -5.13722
lfemur -41.667 -15.6652 3.8778
ltibia 11.9206
lfoot -8.22661 -4.55653
ltoes -35.9886
967
root -1.54962 15.3534 40.9232 -152.784 -27.3304 182.533
lowerback -14.8957 1.76651 10.5655
upperback -2.25106 -0.53393 6.15028
thorax 5.99234 -0.425448 0.484444
lowerneck -12.908 5.63147 6.72049
upperneck 34.0474 3.73411 1.0673
head 13.9 1.92005 -0.334232
rclavicle -9.54166e-015 -1.90833e-014
rhumerus -31.3302 -6.62889 -69.4685
rradius 36.0008
rwrist -8.89017
rhand -20.3015 -20.9984
rfingers 7.12502
rthumb 6.04874 -50.892
lclavicle -9.54166e-015 -1.90833e-014
lhumerus -37.8451 -10.2812 88.3719
lradius 49.4929
lwrist 38.2422
lhand -25.8267 -7.40164
lfingers 7.12502
lthumb 0.713085 22.5769
rfemur -47.326 5.89836 25.924
rtibia 34.4105
rfoot -15.0842 -8.70517
rtoes -5.02069
lfemur -41.7706 -15.6305 3.96928
ltibia 11.8521
lfoot -8.39746 -4.16889
ltoes -37.0571
968
root -1.53241 15.353 40.9173 -152.737 -27.5943 182.538
lowerback -14.9329 1.80495 10.6128
upperback -2.21871 -0.486548 6.08621
thorax 6.04951 -0.39382 0.400543
lowerneck -13.0008 5.57364 6.76402
upperneck 34.1149 3.5923 1.14458
head 13.9472 1.87443 -0.331005
rclavicle -6.36111e-015 -6.20208e-014
rhumerus -31.0619 -6.56197 -69.6637
rradius 36.0736
rwrist -8.85156
rhand -20.3068 -20.9123
rfingers 7.12502
rthumb 6.04364 -50.8061
lclavicle -6.36111e-015 -6.20208e-014
lhumerus -37.7659 -10.393 88.3424
lradius 49.6273
lwrist 38.4019
lhand -25.7616 -7.47735
lfingers 7.12502
lthumb 0.776044 22.501
rfemur -47.3589 5.69625 26.1012
rtibia 34.3828
rfoot -15.0629 -8.65817
rtoes -4.90886
lfemur -41.8757 -15.5859 4.05792
ltibia 11.7972
lfoot -8.53382 -3.71771
ltoes -37.9422
969
root -1.51633 15.3529 40.91 -152.724 -27.8314 182.555
lowerback -14.9332 1.84452 10.6616
upperback -2.19418 -0.43196 6.02474
thorax 6.0785 -0.360154 0.319517
lowerneck -13.0739 5.51979 6.79788
upperneck 34.1956 3.45569 1.22301
head 13.996 1.82895 -0.325493
rclavicle -1.74931e-014 1.46306e-013
rhumerus -30.8501 -6.45009 -69.8525
rradius 36.2003
rwrist -8.81978
rhand -20.3204 -20.8165
rfingers 7.12502
rthumb 6.03048 -50.7106
lclavicle -1.74931e-014 1.46306e-013
lhumerus -37.7237 -10.5123 88.3233
lradius 49.7493
lwrist 38.5445
lhand -25.7156 -7.49502
lfingers 7.12502
lthumb 0.82047 22.4832
rfemur -47.3456 5.51911 26.2777
rtibia 34.3372
rfoot -15.0384 -8.61187
rtoes -4.81732
lfemur -41.9337 -15.5365 4.13389
ltibia 11.7623
lfoot -8.64228 -3.15347
ltoes -38.4261
970
root -1.50138 15.3531 40.9017 -152.744 -28.0402 182.58
lowerback -14.9015 1.87449 10.697
upperback -2.1666 -0.386224 5.98547
thorax 6.09309 -0.332434 0.267485
lowerneck -13.1508 5.47664 6.78841
upperneck 34.286 3.34763 1.2987
head 14.0493 1.79001 -0.309045
rclavicle -4.92986e-014 -4.77083e-014
rhumerus -30.645 -6.26304 -70.0204
rradius 36.3572
rwrist -8.79932
rhand -20.3284 -20.7179
rfingers 7.12502
rthumb 6.02275 -50.6123
lclavicle -4.92986e-014 -4.77083e-014
lhumerus -37.7064 -10.6022 88.3289
lradius 49.8692
lwrist 38.667
lhand -25.6607 -7.48075
lfingers 7.12502
lthumb 0.873454 22.4972
rfemur -47.2853 5.36738 26.4518
rtibia 34.2721
rfoot -15.0091 -8.56714
rtoes -4.7454
lfemur -41.9403 -15.4686 4.18659
ltibia 11.7521
lfoot -8.70898 -2.455
ltoes -38.5676
971
root -1.48741 15.3539 40.8924 -152.788 -28.2222 182.61
lowerback -14.8521 1.89718 10.7159
upperback -2.13439 -0.347193 5.96261
thorax 6.10288 -0.30897 0.240575
lowerneck -13.2287 5.43845 6.7416
upperneck 34.3863 3.25441 1.37927
head 14.1063 1.7531 -0.281882
rclavicle 2.78299e-014 1.90833e-014
rhumerus -30.446 -6.01901 -70.1694
rradius 36.5374
rwrist -8.78791
rhand -20.3518 -20.5666
rfingers 7.12502
rthumb 6.00022 -50.4616
lclavicle 2.78299e-014 1.90833e-014
lhumerus -37.6972 -10.6636 88.3519
lradius 49.9697
lwrist 38.7553
lhand -25.5878 -7.46482
lfingers 7.12502
lthumb 0.943882 22.5128
rfemur -47.1867 5.23758 26.6184
rtibia 34.1866
rfoot -14.9743 -8.52268
rtoes -4.70232
lfemur -41.9036 -15.3734 4.20932
ltibia 11.7703
lfoot -8.72187 -1.58895
ltoes -38.3127
